<svg xmlns="http://www.w3.org/2000/svg" xmlns:xlink="http://www.w3.org/1999/xlink" version="1.1" x="0px" y="0px" viewBox="0 0 1000 1250" style="enable-background:new 0 0 1000 1000;" xml:space="preserve"><g><g><path d="M871.1,708v-11.9c0-124.4,0-248.7-0.2-373.1c0-8.3-0.6-16.8-2.1-25c-13.7-74.1-73.8-124.1-149.3-124.1    c-119.9,0-239.8,0-359.6,0c-56.9,0-113.7,0-170.6,0c-25.3,0-45.8,9.9-60.2,30.8c-10,14.4-16.1,29.8-15.1,48.5    c1.4,27.4,0,54.9,0.4,82.3c0.6,50.2,21.2,89.6,64.1,116.6c3.8,2.4,8.8,3.6,13.3,3.7c27.5,0.3,54.9,0.3,82.3,0    c4.5,0,9.5-1.3,13.3-3.6c37.1-22.7,57.3-56.3,63.7-100.2h7.8c60.8,0,121.5,0,182.3,0c29.1,0,47.7,18.5,47.8,47.8    c0.1,66.7,0.1,133.3,0,200c0,4.3-1.1,8.9-2.5,13c-12,32.7-29.6,62-52.4,88.4c-4.4,5.1-8.8,7.2-15.6,7.2    c-97.1-0.2-269.2-0.2-359.4-0.2c-32.6,0-59,26.4-59,59c0,3.2,0.3,6.3,0.7,9.3H900V737C900,721,887,708,871.1,708z M810.9,648.3    h-162V500.7h162V648.3z M729.5,426c-45.2-0.3-81.3-36.8-81.2-82.2c0-44.6,37.5-81.3,82.6-80.9c44.6,0.3,80.7,37,80.5,81.9    C811.2,390.3,774.8,426.3,729.5,426z M105.2,791.5c3,6.5,7.1,12.4,12,17.4c10.7,10.7,25.4,17.3,41.7,17.3h712.1c16,0,29-13,29-29    v-5.7H105.2z"/></g><g><path d="M281.5,469.3v18.9c0,3.6-2.9,6.5-6.5,6.5h-9.7v9.2c0,3.6-2.9,6.5-6.5,6.5h-20.2v96.9L227,634.5V510.5h-21.3    c-3.6,0-6.5-2.9-6.5-6.5v-9.2h-8.6c-3.6,0-6.5-2.9-6.5-6.5v-18.9c0-3.6,2.9-6.5,6.5-6.5H275C278.6,462.8,281.5,465.8,281.5,469.3z    "/></g></g><g><g><g><path d="M400.6,118.9h-45.1c-2.1,0-3.8-1.4-3.8-3.1l-7.1-6.7c0-1.7,1.7-3.1,3.8-3.1h59.4c2.1,0,3.8,1.4,3.8,3.1l-7.1,6.7     C404.4,117.5,402.6,118.9,400.6,118.9z"/></g></g><g><g><path d="M355.4,153.1h45.1c2.1,0,3.8,1.4,3.8,3.1l7.1,6.7c0,1.7-1.7,3.1-3.8,3.1h-59.4c-2.1,0-3.8-1.4-3.8-3.1l7.1-6.7     C351.6,154.5,353.3,153.1,355.4,153.1z"/></g></g><g><g><rect x="353.8" y="122.2" transform="matrix(1 2.263795e-003 -2.263795e-003 1 0.2795 -0.8555)" width="48.5" height="1.8"/></g></g><g><g><rect x="353.8" y="128.1" transform="matrix(1 2.263795e-003 -2.263795e-003 1 0.2929 -0.8554)" width="48.5" height="1.8"/></g></g><g><g><rect x="353.8" y="134.5" transform="matrix(1 2.263779e-003 -2.263779e-003 1 0.3075 -0.8553)" width="48.5" height="1.8"/></g></g><g><g><rect x="353.7" y="141" transform="matrix(1 2.263779e-003 -2.263779e-003 1 0.3222 -0.8553)" width="48.5" height="1.8"/></g></g><g><g><rect x="353.7" y="147.5" transform="matrix(1 2.263795e-003 -2.263795e-003 1 0.3368 -0.8552)" width="48.5" height="1.8"/></g></g></g><g><g><g><path d="M643.5,118.9h-45.1c-2.1,0-3.8-1.4-3.8-3.1l-7.1-6.7c0-1.7,1.7-3.1,3.8-3.1h59.4c2.1,0,3.8,1.4,3.8,3.1l-7.1,6.7     C647.3,117.5,645.6,118.9,643.5,118.9z"/></g></g><g><g><path d="M598.4,153.1h45.1c2.1,0,3.8,1.4,3.8,3.1l7.1,6.7c0,1.7-1.7,3.1-3.8,3.1h-59.4c-2.1,0-3.8-1.4-3.8-3.1l7.1-6.7     C594.6,154.5,596.3,153.1,598.4,153.1z"/></g></g><g><g><rect x="596.8" y="122.2" transform="matrix(1 2.263795e-003 -2.263795e-003 1 0.2802 -1.4055)" width="48.5" height="1.8"/></g></g><g><g><rect x="596.8" y="128.1" transform="matrix(1 2.263795e-003 -2.263795e-003 1 0.2935 -1.4055)" width="48.5" height="1.8"/></g></g><g><g><rect x="596.7" y="134.5" transform="matrix(1 2.263779e-003 -2.263779e-003 1 0.3081 -1.4054)" width="48.5" height="1.8"/></g></g><g><g><rect x="596.7" y="141" transform="matrix(1 2.263779e-003 -2.263779e-003 1 0.3228 -1.4053)" width="48.5" height="1.8"/></g></g><g><g><rect x="596.7" y="147.5" transform="matrix(1 2.263795e-003 -2.263795e-003 1 0.3374 -1.4053)" width="48.5" height="1.8"/></g></g></g><g><path d="M973.5,401.4v39.2c0,1.9-4.6,0.2-8.6-2.7l-13.3-9.4c-0.6-0.5-1.1-1.2-1.1-1.8V426H917v15   c0,6.6-5.4,12-12,12h-14c-6.6,0-12-5.4-12-12V329c0-6.6,5.4-12,12-12h14c6.6,0,12,5.4,12,12v86h33.5c0.1-0.5,0.5-1.1,1.1-1.5   l13.3-9.4C968.9,401.2,973.5,399.5,973.5,401.4z"/></g><text x="0" y="1015" fill="#000000" font-size="5px" font-weight="bold" font-family="'Helvetica Neue', Helvetica, Arial-Unicode, Arial, Sans-serif">Created by leo-graph.com</text><text x="0" y="1020" fill="#000000" font-size="5px" font-weight="bold" font-family="'Helvetica Neue', Helvetica, Arial-Unicode, Arial, Sans-serif">from the Noun Project</text></svg>